<svg xmlns="http://www.w3.org/2000/svg" xmlns:xlink="http://www.w3.org/1999/xlink" width="500" zoomAndPan="magnify" viewBox="0 0 375 374.999991" height="500" preserveAspectRatio="xMidYMid meet" version="1.0"><defs><g/><clipPath id="c5545077a1"><path d="M 75 89.847656 L 300 89.847656 L 300 315 L 75 315 Z M 75 89.847656 " clip-rule="nonzero"/></clipPath><clipPath id="11eee63c8b"><path d="M 290 168 L 315.328125 168 L 315.328125 236 L 290 236 Z M 290 168 " clip-rule="nonzero"/></clipPath><clipPath id="35b2223b4e"><path d="M 59.578125 168 L 85 168 L 85 236 L 59.578125 236 Z M 59.578125 168 " clip-rule="nonzero"/></clipPath><clipPath id="3260b3d8ac"><path d="M 168.628906 299.328125 L 206.363281 299.328125 L 206.363281 320.847656 L 168.628906 320.847656 Z M 168.628906 299.328125 " clip-rule="nonzero"/></clipPath><clipPath id="0ec0f356b3"><path d="M 130 161 L 231 161 L 231 264.726562 L 130 264.726562 Z M 130 161 " clip-rule="nonzero"/></clipPath><clipPath id="f5931b95a7"><path d="M 175 146.226562 L 245.8125 146.226562 L 245.8125 220 L 175 220 Z M 175 146.226562 " clip-rule="nonzero"/></clipPath></defs><path fill="#2e7080" d="M 246.769531 260.417969 C 231.359375 276.042969 210.71875 284.816406 188.652344 285.113281 C 188.265625 285.121094 187.882812 285.121094 187.496094 285.121094 C 173.996094 285.121094 160.589844 281.8125 148.726562 275.546875 L 146.535156 274.386719 L 144.09375 274.820312 L 113.144531 280.277344 C 112.921875 280.316406 112.699219 280.335938 112.480469 280.335938 C 111.433594 280.335938 110.433594 279.863281 109.738281 279.03125 C 109.335938 278.554688 108.703125 277.535156 108.957031 276.089844 L 114.441406 244.996094 L 114.871094 242.574219 L 113.730469 240.394531 C 107.480469 228.425781 104.316406 215.464844 104.332031 201.878906 C 104.339844 190.6875 106.554688 179.820312 110.917969 169.578125 C 115.128906 159.691406 121.148438 150.800781 128.8125 143.15625 C 136.472656 135.515625 145.371094 129.515625 155.269531 125.324219 C 165.5 120.988281 176.347656 118.789062 187.507812 118.789062 C 187.933594 118.789062 188.367188 118.792969 188.796875 118.800781 C 199.882812 118.96875 210.621094 121.285156 220.707031 125.683594 C 230.464844 129.9375 239.21875 135.957031 246.726562 143.578125 C 262.160156 159.234375 270.664062 179.96875 270.664062 201.957031 C 270.664062 224.027344 262.175781 244.792969 246.769531 260.417969 Z M 188.90625 111.570312 C 188.441406 111.5625 187.96875 111.558594 187.507812 111.558594 C 137.867188 111.558594 97.144531 152.0625 97.097656 201.871094 C 97.082031 216.976562 100.78125 231.21875 107.320312 243.742188 L 101.835938 274.832031 C 100.640625 281.597656 105.914062 287.570312 112.480469 287.570312 C 113.109375 287.570312 113.753906 287.515625 114.402344 287.402344 L 145.351562 281.941406 C 157.933594 288.585938 172.273438 292.355469 187.496094 292.355469 C 187.914062 292.355469 188.332031 292.351562 188.75 292.347656 C 238.335938 291.671875 277.894531 251.546875 277.894531 201.957031 C 277.894531 152.5 238.179688 112.320312 188.90625 111.570312 " fill-opacity="1" fill-rule="nonzero"/><g clip-path="url(#c5545077a1)"><path fill="#2e7080" d="M 187.496094 314.050781 L 187.496094 306.816406 C 215.507812 306.816406 241.839844 295.910156 261.644531 276.105469 C 281.449219 256.296875 292.359375 229.964844 292.359375 201.957031 C 292.359375 173.945312 281.449219 147.613281 261.644531 127.808594 C 241.839844 108.003906 215.507812 97.09375 187.496094 97.09375 C 159.488281 97.09375 133.152344 108.003906 113.347656 127.808594 C 93.542969 147.613281 82.632812 173.945312 82.632812 201.957031 C 82.632812 207.898438 83.128906 213.824219 84.109375 219.636719 C 84.394531 221.328125 84.023438 223.109375 84.390625 224.78125 L 78.023438 226.230469 C 76.285156 218.316406 75.402344 210.148438 75.402344 201.957031 C 75.402344 172.015625 87.0625 143.867188 108.234375 122.695312 C 129.40625 101.523438 157.554688 89.863281 187.496094 89.863281 C 217.4375 89.863281 245.585938 101.523438 266.757812 122.695312 C 287.929688 143.867188 299.589844 172.015625 299.589844 201.957031 C 299.589844 231.898438 287.929688 260.046875 266.757812 281.21875 C 245.585938 302.390625 217.4375 314.050781 187.496094 314.050781 " fill-opacity="1" fill-rule="nonzero"/></g><g clip-path="url(#11eee63c8b)"><path fill="#2e7080" d="M 315.410156 201.957031 C 315.410156 220.320312 308.796875 235.207031 300.632812 235.207031 C 297.292969 235.207031 294.214844 232.714844 291.738281 228.511719 C 288.164062 222.445312 293.730469 212.808594 293.730469 201.957031 C 293.730469 191.136719 288.152344 181.519531 291.710938 175.449219 C 294.191406 171.21875 297.28125 168.707031 300.632812 168.707031 C 308.796875 168.707031 315.410156 183.59375 315.410156 201.957031 " fill-opacity="1" fill-rule="nonzero"/></g><g clip-path="url(#35b2223b4e)"><path fill="#2e7080" d="M 59.578125 201.957031 C 59.578125 220.320312 66.195312 235.207031 74.355469 235.207031 C 77.695312 235.207031 80.777344 232.714844 83.25 228.511719 C 86.824219 222.445312 81.257812 212.808594 81.257812 201.957031 C 81.257812 191.136719 86.835938 181.519531 83.277344 175.449219 C 80.800781 171.21875 77.710938 168.707031 74.355469 168.707031 C 66.195312 168.707031 59.578125 183.59375 59.578125 201.957031 " fill-opacity="1" fill-rule="nonzero"/></g><g clip-path="url(#3260b3d8ac)"><path fill="#2e7080" d="M 206.128906 310.183594 C 206.128906 316.175781 197.785156 321.03125 187.496094 321.03125 C 177.207031 321.03125 168.863281 316.175781 168.863281 310.183594 C 168.863281 304.191406 177.207031 299.335938 187.496094 299.335938 C 197.785156 299.335938 206.128906 304.191406 206.128906 310.183594 " fill-opacity="1" fill-rule="nonzero"/></g><g clip-path="url(#0ec0f356b3)"><path fill="#1e475d" d="M 225.597656 253.222656 L 225.621094 253.222656 Z M 147.550781 166.652344 C 146.578125 166.652344 145.65625 167.09375 144.660156 167.96875 C 144.527344 168.085938 143.050781 169.492188 142.117188 170.378906 L 141.328125 171.128906 C 136.53125 175.613281 134.355469 183.691406 135.785156 191.714844 C 136.25 194.308594 136.996094 196.996094 138.003906 199.703125 C 143.085938 213.355469 152.742188 225.234375 159.945312 232.789062 C 167.117188 240.398438 178.460938 250.675781 191.820312 256.484375 C 194.46875 257.632812 197.113281 258.519531 199.679688 259.125 C 207.617188 260.980469 215.796875 259.242188 220.535156 254.691406 L 221.363281 253.90625 C 222.28125 253.039062 223.679688 251.714844 223.886719 251.511719 C 226.808594 248.507812 225.332031 245.996094 219.433594 239.996094 L 217.953125 238.476562 C 214.203125 234.585938 207.929688 228.066406 202.609375 228.699219 C 201.175781 228.867188 199.667969 229.917969 198.074219 231.03125 C 196.480469 232.144531 194.835938 233.292969 192.851562 233.921875 C 187.546875 235.601562 182.15625 234.5 177.6875 230.8125 C 175.019531 228.613281 172.304688 226.042969 169.84375 223.378906 C 167.351562 220.816406 164.933594 217.972656 162.878906 215.1875 C 159.4375 210.53125 158.625 205.089844 160.585938 199.878906 C 161.320312 197.933594 162.554688 196.351562 163.75 194.820312 C 164.945312 193.289062 166.078125 191.839844 166.324219 190.417969 C 167.234375 185.144531 161.070312 178.53125 157.386719 174.574219 L 155.941406 173.007812 C 152.042969 168.746094 149.675781 166.652344 147.550781 166.652344 Z M 206.082031 264.691406 C 203.421875 264.691406 200.859375 264.367188 198.578125 263.832031 C 195.726562 263.164062 192.804688 262.183594 189.894531 260.917969 C 175.78125 254.785156 163.910156 244.046875 156.4375 236.117188 C 148.925781 228.242188 138.839844 215.8125 133.46875 201.390625 C 132.359375 198.414062 131.535156 195.441406 131.027344 192.5625 C 129.664062 184.929688 130.785156 174.359375 138.027344 167.59375 L 138.785156 166.871094 C 139.792969 165.914062 141.414062 164.382812 141.476562 164.324219 C 148.730469 157.957031 155.21875 165.050781 159.511719 169.746094 L 160.925781 171.277344 C 165.21875 175.886719 172.40625 183.605469 171.089844 191.242188 C 170.636719 193.859375 169.003906 195.953125 167.558594 197.796875 C 166.542969 199.101562 165.585938 200.328125 165.113281 201.585938 C 163.726562 205.261719 164.300781 208.972656 166.769531 212.316406 C 168.695312 214.925781 170.972656 217.605469 173.351562 220.050781 C 175.710938 222.601562 178.257812 225.015625 180.765625 227.082031 C 183.972656 229.726562 187.648438 230.496094 191.394531 229.3125 C 192.671875 228.90625 193.953125 228.015625 195.304688 227.066406 C 197.222656 225.726562 199.402344 224.207031 202.039062 223.894531 C 209.730469 222.96875 217.058594 230.582031 221.433594 235.117188 L 222.882812 236.605469 C 227.34375 241.144531 234.085938 248 227.328125 254.914062 C 227.324219 254.917969 227.320312 254.917969 227.320312 254.921875 C 227.261719 254.980469 225.691406 256.46875 224.6875 257.417969 L 223.882812 258.179688 C 218.898438 262.96875 212.226562 264.691406 206.082031 264.691406 " fill-opacity="1" fill-rule="nonzero"/></g><path fill="#1e475d" d="M 201.449219 213.21875 C 200.179688 213.21875 199.113281 212.226562 199.039062 210.941406 C 198.777344 206.535156 196.960938 202.351562 193.933594 199.15625 C 190.902344 195.957031 186.820312 193.921875 182.433594 193.425781 C 181.109375 193.277344 180.15625 192.078125 180.304688 190.75 C 180.453125 189.425781 181.640625 188.464844 182.980469 188.621094 C 188.496094 189.246094 193.628906 191.804688 197.445312 195.828125 C 201.253906 199.851562 203.539062 205.113281 203.863281 210.65625 C 203.941406 211.988281 202.925781 213.132812 201.59375 213.210938 C 201.546875 213.214844 201.496094 213.21875 201.449219 213.21875 " fill-opacity="1" fill-rule="nonzero"/><path fill="#1e475d" d="M 222.488281 221.125 C 221.21875 221.125 220.15625 220.136719 220.078125 218.851562 C 219.378906 207.070312 214.53125 195.875 206.429688 187.324219 C 198.324219 178.773438 187.402344 173.332031 175.679688 172.007812 C 174.351562 171.855469 173.394531 170.660156 173.546875 169.335938 C 173.695312 168.003906 174.90625 167.050781 176.222656 167.203125 C 189.074219 168.65625 201.050781 174.621094 209.9375 183.996094 C 218.824219 193.375 224.140625 205.648438 224.90625 218.5625 C 224.984375 219.894531 223.96875 221.042969 222.636719 221.121094 C 222.585938 221.125 222.539062 221.125 222.488281 221.125 " fill-opacity="1" fill-rule="nonzero"/><g clip-path="url(#f5931b95a7)"><path fill="#1e475d" d="M 242.8125 219.476562 C 241.539062 219.476562 240.476562 218.488281 240.398438 217.203125 C 239.417969 200.605469 232.585938 184.832031 221.167969 172.785156 C 209.746094 160.738281 194.363281 153.074219 177.84375 151.203125 C 176.515625 151.054688 175.5625 149.855469 175.714844 148.53125 C 175.863281 147.203125 177.070312 146.242188 178.386719 146.398438 C 196.035156 148.394531 212.476562 156.585938 224.675781 169.460938 C 236.878906 182.332031 244.175781 199.1875 245.226562 216.914062 C 245.304688 218.25 244.289062 219.394531 242.957031 219.472656 C 242.90625 219.476562 242.859375 219.476562 242.8125 219.476562 " fill-opacity="1" fill-rule="nonzero"/></g><g fill="#1e475d" fill-opacity="1"><g transform="translate(86.835658, 141.661901)"><g><path d="M -13.703125 -13.40625 L -9.265625 -19.703125 C -8.109375 -21.335938 -6.757812 -22.550781 -5.21875 -23.34375 C -3.6875 -24.132812 -2.085938 -24.460938 -0.421875 -24.328125 C 1.234375 -24.203125 2.8125 -23.609375 4.3125 -22.546875 C 5.8125 -21.492188 6.898438 -20.207031 7.578125 -18.6875 C 8.265625 -17.175781 8.492188 -15.5625 8.265625 -13.84375 C 8.046875 -12.125 7.359375 -10.445312 6.203125 -8.8125 L 1.765625 -2.515625 Z M 4.71875 -9.71875 C 5.675781 -11.082031 6.242188 -12.457031 6.421875 -13.84375 C 6.597656 -15.238281 6.410156 -16.550781 5.859375 -17.78125 C 5.304688 -19.019531 4.410156 -20.070312 3.171875 -20.9375 C 1.929688 -21.8125 0.640625 -22.300781 -0.703125 -22.40625 C -2.046875 -22.519531 -3.34375 -22.253906 -4.59375 -21.609375 C -5.84375 -20.972656 -6.945312 -19.972656 -7.90625 -18.609375 L -11.125 -14.046875 L 1.5 -5.15625 Z M 4.71875 -9.71875 "/></g></g></g><g fill="#1e475d" fill-opacity="1"><g transform="translate(98.832384, 124.617516)"><g><path d="M 6.9375 -14.1875 L -0.5 -6.6875 L 1.5 -1.515625 L 0.03125 -0.03125 L -7.3125 -19.5 L -5.921875 -20.890625 L 13.609375 -13.734375 L 12.125 -12.234375 Z M 5.28125 -14.796875 L -5.15625 -18.734375 L -1.109375 -8.359375 Z M 5.28125 -14.796875 "/></g></g></g><g fill="#1e475d" fill-opacity="1"><g transform="translate(111.622606, 111.77618)"><g><path d="M -5.03125 -17.765625 L -10.3125 -13.75 L -11.359375 -15.125 L 0.8125 -24.390625 L 1.859375 -23.015625 L -3.421875 -18.984375 L 6.984375 -5.296875 L 5.375 -4.078125 Z M -5.03125 -17.765625 "/></g></g></g><g fill="#1e475d" fill-opacity="1"><g transform="translate(122.855267, 102.959318)"><g><path d="M 10.578125 -11.71875 L 1.375 -6.578125 L 1.875 -1.046875 L 0.046875 -0.015625 L -1.640625 -20.765625 L 0.078125 -21.71875 L 16.875 -9.4375 L 15.03125 -8.40625 Z M 9.15625 -12.765625 L 0.21875 -19.421875 L 1.234375 -8.34375 Z M 9.15625 -12.765625 "/></g></g></g><g fill="#1e475d" fill-opacity="1"><g transform="translate(139.055144, 94.214274)"><g/></g></g><g fill="#1e475d" fill-opacity="1"><g transform="translate(144.249577, 91.242877)"><g><path d="M 16.828125 -24.328125 L 21.90625 -6.09375 L 20.046875 -5.578125 L 15.984375 -20.15625 L 12.25 -5.90625 L 11.34375 -5.640625 L 0.765625 -15.859375 L 4.8125 -1.34375 L 2.96875 -0.828125 L -2.109375 -19.0625 L -0.515625 -19.5 L 11.171875 -8.1875 L 15.234375 -23.890625 Z M 16.828125 -24.328125 "/></g></g></g><g fill="#1e475d" fill-opacity="1"><g transform="translate(167.470833, 84.763748)"><g><path d="M 11.34375 -0.71875 C 9.46875 -0.570312 7.734375 -0.859375 6.140625 -1.578125 C 4.554688 -2.296875 3.285156 -3.347656 2.328125 -4.734375 C 1.367188 -6.128906 0.820312 -7.726562 0.6875 -9.53125 C 0.539062 -11.351562 0.835938 -13.019531 1.578125 -14.53125 C 2.316406 -16.050781 3.410156 -17.285156 4.859375 -18.234375 C 6.316406 -19.191406 7.984375 -19.742188 9.859375 -19.890625 C 11.722656 -20.035156 13.4375 -19.753906 15 -19.046875 C 16.5625 -18.335938 17.832031 -17.285156 18.8125 -15.890625 C 19.789062 -14.492188 20.351562 -12.882812 20.5 -11.0625 C 20.632812 -9.257812 20.320312 -7.59375 19.5625 -6.0625 C 18.8125 -4.53125 17.71875 -3.289062 16.28125 -2.34375 C 14.851562 -1.40625 13.207031 -0.863281 11.34375 -0.71875 Z M 11.203125 -2.5 C 12.679688 -2.613281 14 -3.050781 15.15625 -3.8125 C 16.3125 -4.582031 17.179688 -5.59375 17.765625 -6.84375 C 18.347656 -8.09375 18.585938 -9.445312 18.484375 -10.90625 C 18.367188 -12.382812 17.925781 -13.691406 17.15625 -14.828125 C 16.382812 -15.972656 15.367188 -16.835938 14.109375 -17.421875 C 12.847656 -18.003906 11.476562 -18.238281 10 -18.125 C 8.5 -18.007812 7.164062 -17.566406 6 -16.796875 C 4.84375 -16.023438 3.960938 -15.015625 3.359375 -13.765625 C 2.765625 -12.523438 2.523438 -11.164062 2.640625 -9.6875 C 2.742188 -8.226562 3.1875 -6.925781 3.96875 -5.78125 C 4.757812 -4.632812 5.785156 -3.769531 7.046875 -3.1875 C 8.316406 -2.613281 9.703125 -2.382812 11.203125 -2.5 Z M 11.203125 -2.5 "/></g></g></g><g fill="#1e475d" fill-opacity="1"><g transform="translate(188.506489, 83.034179)"><g><path d="M 20.734375 -16.890625 L 18.796875 1.9375 L 17.15625 1.765625 L 6.625 -14.765625 L 5.046875 0.515625 L 3.0625 0.3125 L 5 -18.515625 L 6.640625 -18.34375 L 17.1875 -1.8125 L 18.765625 -17.09375 Z M 20.734375 -16.890625 "/></g></g></g><g fill="#1e475d" fill-opacity="1"><g transform="translate(209.227042, 85.515727)"><g><path d="M 7.1875 -17.765625 L 9.140625 -17.328125 L 4.953125 1.125 L 3 0.6875 Z M 7.1875 -17.765625 "/></g></g></g><g fill="#1e475d" fill-opacity="1"><g transform="translate(216.406723, 86.925831)"><g><path d="M 11.78125 -14.21875 L 5.484375 -16.296875 L 6.03125 -17.9375 L 20.546875 -13.140625 L 20 -11.5 L 13.703125 -13.578125 L 8.328125 2.75 L 6.40625 2.109375 Z M 11.78125 -14.21875 "/></g></g></g><g fill="#1e475d" fill-opacity="1"><g transform="translate(229.991057, 91.006311)"><g><path d="M 10.046875 5.296875 C 8.367188 4.453125 7.039062 3.304688 6.0625 1.859375 C 5.09375 0.410156 4.554688 -1.148438 4.453125 -2.828125 C 4.359375 -4.515625 4.722656 -6.164062 5.546875 -7.78125 C 6.367188 -9.40625 7.492188 -10.671875 8.921875 -11.578125 C 10.347656 -12.492188 11.929688 -12.976562 13.671875 -13.03125 C 15.410156 -13.082031 17.117188 -12.6875 18.796875 -11.84375 C 20.460938 -10.988281 21.773438 -9.847656 22.734375 -8.421875 C 23.691406 -7.003906 24.222656 -5.441406 24.328125 -3.734375 C 24.429688 -2.035156 24.070312 -0.375 23.25 1.25 C 22.425781 2.863281 21.289062 4.125 19.84375 5.03125 C 18.40625 5.945312 16.828125 6.429688 15.109375 6.484375 C 13.398438 6.546875 11.710938 6.148438 10.046875 5.296875 Z M 10.859375 3.703125 C 12.179688 4.378906 13.535156 4.691406 14.921875 4.640625 C 16.304688 4.597656 17.570312 4.195312 18.71875 3.4375 C 19.875 2.675781 20.785156 1.640625 21.453125 0.328125 C 22.117188 -0.984375 22.421875 -2.328125 22.359375 -3.703125 C 22.304688 -5.078125 21.894531 -6.34375 21.125 -7.5 C 20.351562 -8.65625 19.304688 -9.570312 17.984375 -10.25 C 16.640625 -10.925781 15.269531 -11.238281 13.875 -11.1875 C 12.488281 -11.132812 11.210938 -10.734375 10.046875 -9.984375 C 8.878906 -9.234375 7.960938 -8.203125 7.296875 -6.890625 C 6.628906 -5.578125 6.332031 -4.226562 6.40625 -2.84375 C 6.476562 -1.457031 6.898438 -0.191406 7.671875 0.953125 C 8.453125 2.109375 9.515625 3.023438 10.859375 3.703125 Z M 10.859375 3.703125 "/></g></g></g><g fill="#1e475d" fill-opacity="1"><g transform="translate(248.851743, 100.635696)"><g><path d="M 12.828125 9.578125 L 13 2.109375 C 12.582031 1.859375 12.160156 1.578125 11.734375 1.265625 L 7.65625 -1.78125 L 4.0625 3.03125 L 2.46875 1.84375 L 13.78125 -13.3125 L 19.453125 -9.078125 C 21.390625 -7.628906 22.5625 -6.035156 22.96875 -4.296875 C 23.382812 -2.554688 22.988281 -0.878906 21.78125 0.734375 C 20.894531 1.921875 19.847656 2.695312 18.640625 3.0625 C 17.429688 3.4375 16.132812 3.382812 14.75 2.90625 L 14.578125 10.875 Z M 12.703125 -0.125 C 14.210938 1 15.609375 1.523438 16.890625 1.453125 C 18.179688 1.378906 19.273438 0.738281 20.171875 -0.46875 C 21.085938 -1.695312 21.394531 -2.929688 21.09375 -4.171875 C 20.789062 -5.410156 19.882812 -6.59375 18.375 -7.71875 L 14.34375 -10.734375 L 8.671875 -3.140625 Z M 12.703125 -0.125 "/></g></g></g><g fill="#1e475d" fill-opacity="1"><g transform="translate(263.464047, 111.485124)"><g><path d="M 12.796875 10.5 L 11.5625 11.71875 L 2.15625 2.1875 L 15.625 -11.09375 L 24.75 -1.84375 L 23.515625 -0.625 L 15.796875 -8.453125 L 11.015625 -3.734375 L 17.890625 3.234375 L 16.671875 4.421875 L 9.796875 -2.546875 L 4.796875 2.390625 Z M 12.796875 10.5 "/></g></g></g><g fill="#1e475d" fill-opacity="1"><g transform="translate(275.377573, 123.129324)"><g><path d="M 6.421875 9.375 C 5.347656 7.84375 4.710938 6.207031 4.515625 4.46875 C 4.316406 2.738281 4.566406 1.109375 5.265625 -0.421875 C 5.960938 -1.960938 7.050781 -3.253906 8.53125 -4.296875 C 10.019531 -5.347656 11.609375 -5.945312 13.296875 -6.09375 C 14.984375 -6.238281 16.609375 -5.925781 18.171875 -5.15625 C 19.734375 -4.394531 21.050781 -3.25 22.125 -1.71875 C 23.207031 -0.1875 23.84375 1.425781 24.03125 3.125 C 24.226562 4.820312 23.976562 6.453125 23.28125 8.015625 C 22.582031 9.578125 21.488281 10.882812 20 11.9375 C 18.519531 12.976562 16.925781 13.566406 15.21875 13.703125 C 13.519531 13.835938 11.898438 13.53125 10.359375 12.78125 C 8.816406 12.039062 7.503906 10.90625 6.421875 9.375 Z M 7.875 8.34375 C 8.738281 9.5625 9.796875 10.46875 11.046875 11.0625 C 12.296875 11.65625 13.601562 11.882812 14.96875 11.75 C 16.34375 11.613281 17.628906 11.125 18.828125 10.28125 C 20.035156 9.425781 20.929688 8.375 21.515625 7.125 C 22.109375 5.875 22.332031 4.5625 22.1875 3.1875 C 22.039062 1.8125 21.535156 0.515625 20.671875 -0.703125 C 19.804688 -1.929688 18.742188 -2.847656 17.484375 -3.453125 C 16.234375 -4.054688 14.921875 -4.296875 13.546875 -4.171875 C 12.171875 -4.046875 10.878906 -3.554688 9.671875 -2.703125 C 8.472656 -1.859375 7.582031 -0.804688 7 0.453125 C 6.414062 1.710938 6.195312 3.035156 6.34375 4.421875 C 6.5 5.804688 7.007812 7.113281 7.875 8.34375 Z M 7.875 8.34375 "/></g></g></g></svg>